<?xml version="1.0" standalone="no"?>
<!DOCTYPE svg PUBLIC "-//W3C//DTD SVG 20010904//EN"
 "http://www.w3.org/TR/2001/REC-SVG-20010904/DTD/svg10.dtd">
<svg version="1.0" xmlns="http://www.w3.org/2000/svg"
 width="64.000000pt" height="64.000000pt" viewBox="0 0 64.000000 64.000000"
 preserveAspectRatio="xMidYMid meet">

<g transform="translate(0.000000,64.000000) scale(0.100000,-0.100000)"
fill="red" stroke="none">
<path d="M0 320 l0 -320 320 0 320 0 0 320 0 320 -320 0 -320 0 0 -320z m120
161 c0 -48 4 -72 15 -81 25 -21 35 -1 35 76 0 72 1 74 25 74 24 0 25 -2 25
-71 0 -96 -18 -129 -73 -129 -50 0 -67 30 -67 120 0 73 2 80 20 80 18 0 20 -7
20 -69z m218 22 l20 -48 1 48 c1 43 3 47 26 47 l25 0 0 -100 0 -100 -26 0
c-21 0 -29 9 -49 53 l-24 52 0 -52 c-1 -46 -4 -53 -21 -53 -19 0 -20 7 -20
100 0 99 0 100 24 100 19 0 28 -10 44 -47z m172 -53 c0 -93 -1 -100 -20 -100
-19 0 -20 7 -20 100 0 93 1 100 20 100 19 0 20 -7 20 -100z m-316 -176 c22
-22 29 -56 22 -111 -3 -27 -7 -55 -8 -63 -1 -8 2 -25 6 -37 6 -20 4 -23 -17
-23 -18 0 -27 7 -31 25 -4 17 -13 25 -28 25 -41 0 -58 28 -58 97 0 50 4 67 20
83 24 24 72 26 94 4z m116 -64 l0 -80 50 0 c43 0 50 -3 50 -20 0 -18 -7 -20
-70 -20 l-70 0 0 100 c0 93 1 100 20 100 18 0 20 -7 20 -80z m230 60 c26 -26
29 -134 3 -162 -22 -24 -77 -24 -103 2 -29 29 -28 127 0 158 26 28 73 29 100
2z"/>
<path d="M131 237 c-16 -16 -14 -82 4 -97 23 -19 35 -2 35 50 0 49 -16 70 -39
47z"/>
<path d="M477 243 c-11 -10 -8 -101 3 -108 19 -12 40 17 40 54 0 45 -23 74
-43 54z"/>
</g>
</svg>
